<?xml version="1.0" encoding="UTF-8"?>
<svg id="Layer_2" data-name="Layer 2" xmlns="http://www.w3.org/2000/svg" viewBox="0 0 112.94 121.3">
  <defs>
    <style>
      .cls-1 {
        fill: #ed1c24;
      }

      .cls-2 {
        fill: #77d1f5;
      }

      .cls-3 {
        fill: #0da84b;
      }
    </style>
  </defs>
  <g id="RECORTES">
    <g>
      <g>
        <path class="cls-2" d="M47.34,36.81c4.63-1.54,9.88-.27,14.59,3.06l-11.26,4.78-3.33-7.84Z"/>
        <path class="cls-2" d="M56.9,59.34l-5.43-12.79,12.32-5.23c3.38,2.85,6.36,6.78,8.5,11.48l-15.4,6.54Z"/>
        <path class="cls-2" d="M49.54,47.38l5.43,12.79-15.4,6.54c-1.9-4.81-2.65-9.68-2.35-14.09l12.32-5.23Z"/>
        <path class="cls-2" d="M55.78,62.08l5.42,12.77-12.32,5.23c-3.38-2.85-6.36-6.77-8.5-11.47l15.4-6.54Z"/>
        <path class="cls-2" d="M63.95,75.95l11.25-4.77c-.88,5.7-3.62,10.34-7.92,12.6l-3.32-7.83Z"/>
        <path class="cls-2" d="M63.13,74.03l-5.42-12.77,15.4-6.54c1.9,4.81,2.64,9.67,2.35,14.08l-12.32,5.23Z"/>
        <path class="cls-2" d="M48.73,45.47l-11.26,4.78c.88-5.7,3.61-10.36,7.93-12.62l3.33,7.84Z"/>
        <path class="cls-2" d="M65.34,84.6c-4.61,1.53-9.86.27-14.57-3.05l11.25-4.77,3.32,7.83Z"/>
        <path class="cls-2" d="M84.7,47.55l-10.44,4.43c-2.11-4.64-5.03-8.57-8.33-11.55l7.91-3.36c4.76,2.26,8.6,5.83,10.85,10.48Z"/>
        <path class="cls-2" d="M71.17,35.94l-7.02,2.98c-2.75-2.12-5.72-3.61-8.69-4.33,5.54-.84,10.98-.33,15.71,1.35Z"/>
        <path class="cls-2" d="M38.16,41.93c-1.54,2.64-2.53,5.81-2.92,9.26l-7.02,2.98c2.08-4.58,5.49-8.84,9.94-12.24Z"/>
        <path class="cls-2" d="M27.17,56.88l7.91-3.36c-.15,4.45.65,9.27,2.52,14.02l-10.44,4.43c-1.79-4.85-1.68-10.09,0-15.09Z"/>
        <path class="cls-2" d="M27.98,73.88l10.44-4.43c2.11,4.64,5.02,8.56,8.33,11.54l-7.93,3.36c-4.75-2.27-8.59-5.82-10.84-10.47Z"/>
        <path class="cls-2" d="M41.51,85.48l7.03-2.98c2.75,2.12,5.71,3.6,8.67,4.33-5.54.84-10.98.33-15.71-1.34Z"/>
        <path class="cls-2" d="M74.51,79.48c1.54-2.64,2.53-5.8,2.91-9.25l7.03-2.98c-2.08,4.57-5.49,8.83-9.95,12.23Z"/>
        <path class="cls-2" d="M85.51,64.53l-7.93,3.36c.15-4.45-.65-9.26-2.52-14.01l10.44-4.43c1.78,4.85,1.68,10.08,0,15.07Z"/>
        <path class="cls-2" d="M72.3,52.81l-15.4,6.54-5.43-12.79,12.32-5.23c3.38,2.85,6.36,6.78,8.5,11.48Z"/>
        <path class="cls-2" d="M61.92,39.87l-11.26,4.78-3.33-7.84c4.63-1.54,9.88-.27,14.59,3.06Z"/>
        <path class="cls-2" d="M45.4,37.63l3.33,7.84-11.26,4.78c.88-5.7,3.61-10.36,7.93-12.62Z"/>
        <path class="cls-2" d="M37.21,52.61l12.32-5.23,5.43,12.79-15.4,6.54c-1.9-4.81-2.65-9.68-2.35-14.09Z"/>
        <path class="cls-2" d="M40.38,68.61l15.4-6.54,5.42,12.77-12.32,5.23c-3.38-2.85-6.36-6.77-8.5-11.47Z"/>
        <path class="cls-2" d="M50.77,81.55l11.25-4.77,3.32,7.83c-4.61,1.53-9.86.27-14.57-3.05Z"/>
        <path class="cls-2" d="M67.27,83.78l-3.32-7.83,11.25-4.77c-.88,5.7-3.62,10.34-7.92,12.6Z"/>
        <path class="cls-2" d="M75.46,68.8l-12.32,5.23-5.42-12.77,15.4-6.54c1.9,4.81,2.64,9.67,2.35,14.08Z"/>
        <path class="cls-2" d="M35.08,53.52c-.15,4.45.65,9.27,2.52,14.02l-10.44,4.43c-1.79-4.85-1.68-10.09,0-15.09l7.91-3.36Z"/>
        <path class="cls-2" d="M84.46,67.25c-2.08,4.57-5.49,8.83-9.95,12.23,1.54-2.64,2.53-5.8,2.91-9.25l7.03-2.98Z"/>
        <path class="cls-2" d="M75.2,71.18c-.88,5.7-3.62,10.34-7.92,12.6l-3.32-7.83,11.25-4.77Z"/>
        <path class="cls-2" d="M62.01,76.77l3.32,7.83c-4.61,1.53-9.86.27-14.57-3.05l11.25-4.77Z"/>
        <path class="cls-2" d="M57.21,86.82c-5.54.84-10.98.33-15.71-1.34l7.03-2.98c2.75,2.12,5.71,3.6,8.67,4.33Z"/>
        <path class="cls-2" d="M46.74,80.99l-7.93,3.36c-4.75-2.27-8.59-5.82-10.84-10.47l10.44-4.43c2.11,4.64,5.02,8.56,8.33,11.54Z"/>
        <path class="cls-2" d="M55.78,62.08l5.42,12.77-12.32,5.23c-3.38-2.85-6.36-6.77-8.5-11.47l15.4-6.54Z"/>
        <path class="cls-2" d="M73.11,54.72c1.9,4.81,2.64,9.67,2.35,14.08l-12.32,5.23-5.42-12.77,15.4-6.54Z"/>
        <path class="cls-2" d="M85.51,49.46c1.78,4.85,1.68,10.08,0,15.07l-7.93,3.36c.15-4.45-.65-9.26-2.52-14.01l10.44-4.43Z"/>
        <path class="cls-2" d="M84.7,47.55l-10.44,4.43c-2.11-4.64-5.03-8.57-8.33-11.55l7.91-3.36c4.76,2.26,8.6,5.83,10.85,10.48Z"/>
        <path class="cls-2" d="M71.17,35.94l-7.02,2.98c-2.75-2.12-5.72-3.61-8.69-4.33,5.54-.84,10.98-.33,15.71,1.35Z"/>
        <path class="cls-2" d="M72.3,52.81l-15.4,6.54-5.43-12.79,12.32-5.23c3.38,2.85,6.36,6.78,8.5,11.48Z"/>
        <path class="cls-2" d="M61.92,39.87l-11.26,4.78-3.33-7.84c4.63-1.54,9.88-.27,14.59,3.06Z"/>
        <path class="cls-2" d="M38.16,41.93c-1.54,2.64-2.53,5.81-2.92,9.26l-7.02,2.98c2.08-4.58,5.49-8.84,9.94-12.24Z"/>
        <path class="cls-2" d="M45.4,37.63l3.33,7.84-11.26,4.78c.88-5.7,3.61-10.36,7.93-12.62Z"/>
        <path class="cls-2" d="M49.54,47.38l5.43,12.79-15.4,6.54c-1.9-4.81-2.65-9.68-2.35-14.09l12.32-5.23Z"/>
      </g>
      <path class="cls-1" d="M37.92,15.78c-.3.11-.57.22-.85.36-4.25,2.07-6.14,7.1-4.29,11.46s7.14,6.61,11.65,4.69c22.83-9.69,49.28,1,58.97,23.84,9.54,22.48-.33,48.13-22.49,58.38l-14.09,6.8,14.41-6.11c12.9-5.89,22.84-16.42,27.99-29.64,5.16-13.26,4.95-27.77-.6-40.86C97.02,17.37,65.3,4.41,37.92,15.78ZM96.66,103.63c11.09-12.77,14.51-31.13,7.44-47.8-9.85-23.22-36.75-34.09-59.96-24.24-4.13,1.75-8.92-.17-10.67-4.29s.03-8.6,3.93-10.49c.13-.06.24-.11.36-.17h.02c.12-.06.25-.11.41-.17,27.01-11.22,58.3,1.57,69.73,28.5,8.81,20.75,3.73,43.71-11.27,58.66Z"/>
      <path class="cls-1" d="M107.93,44.98c8.81,20.75,3.73,43.71-11.27,58.66,11.09-12.77,14.51-31.13,7.44-47.8-9.85-23.22-36.75-34.09-59.96-24.24-4.13,1.75-8.92-.17-10.67-4.29s.03-8.6,3.93-10.49c.13-.06.24-.11.36-.17h.02c.12-.06.25-.11.41-.17,27.01-11.22,58.3,1.57,69.73,28.5Z"/>
      <path class="cls-3" d="M68.51,89.02c-22.83,9.69-49.28-1-58.97-23.84C0,42.69,9.87,17.05,32.02,6.8L46.12,0l-14.41,6.11C18.82,12,8.87,22.53,3.72,35.76c-5.16,13.25-4.95,27.76.61,40.86,11.59,27.31,43.31,40.27,70.68,28.9.14-.05.28-.1.43-.16s.28-.13.42-.2c4.25-2.07,6.15-7.1,4.3-11.45-1.91-4.5-7.14-6.61-11.65-4.69ZM75.54,104.49c-.13.07-.24.11-.38.17-.13.05-.25.11-.41.16-27.01,11.22-58.29-1.57-69.72-28.5C-3.79,55.57,1.28,32.62,16.28,17.67c-11.09,12.77-14.51,31.13-7.44,47.8,9.85,23.22,36.75,34.09,59.96,24.24,4.13-1.75,8.92.17,10.67,4.29,1.69,3.99-.04,8.59-3.93,10.49Z"/>
      <path class="cls-3" d="M79.47,94c1.69,3.99-.04,8.59-3.93,10.49-.13.07-.24.11-.38.17-.13.05-.25.11-.41.16-27.01,11.22-58.29-1.57-69.72-28.5C-3.79,55.57,1.28,32.62,16.28,17.67c-11.09,12.77-14.51,31.13-7.44,47.8,9.85,23.22,36.75,34.09,59.96,24.24,4.13-1.75,8.92.17,10.67,4.29Z"/>
    </g>
  </g>
</svg>