<?xml version="1.0" encoding="UTF-8"?>
<svg id="Layer_2" data-name="Layer 2" xmlns="http://www.w3.org/2000/svg" viewBox="0 0 130.66 155.32">
  <defs>
    <style>
      .cls-1 {
        fill: #231f20;
      }

      .cls-2 {
        fill: #ed1c24;
      }

      .cls-3 {
        fill: #77d1f5;
      }

      .cls-4 {
        fill: #0da84b;
      }
    </style>
  </defs>
  <g id="RECORTES">
    <g>
      <g>
        <path class="cls-1" d="M0,140.5l1.82-.29c.1.73.39,1.29.85,1.68s1.12.58,1.96.58,1.47-.17,1.88-.52.61-.75.61-1.21c0-.42-.18-.74-.54-.98-.25-.16-.88-.37-1.88-.62-1.35-.34-2.28-.64-2.8-.88s-.92-.59-1.18-1.03-.4-.92-.4-1.46c0-.48.11-.93.33-1.34s.52-.75.9-1.03c.29-.21.68-.39,1.17-.54s1.02-.22,1.59-.22c.85,0,1.6.12,2.24.37.64.25,1.12.58,1.42,1s.52.98.63,1.68l-1.8.25c-.08-.56-.32-.99-.71-1.31s-.94-.47-1.66-.47c-.84,0-1.45.14-1.81.42s-.54.61-.54.98c0,.24.07.45.22.64.15.2.38.36.7.49.18.07.73.22,1.62.47,1.3.35,2.21.63,2.72.85s.92.54,1.21.97.44.95.44,1.57-.18,1.19-.54,1.73-.87.96-1.55,1.26-1.44.44-2.29.44c-1.41,0-2.48-.29-3.22-.88s-1.21-1.45-1.41-2.6Z"/>
        <path class="cls-1" d="M27.64,140.24l1.9.23c-.3,1.11-.85,1.97-1.67,2.58s-1.85.92-3.11.92c-1.59,0-2.84-.49-3.77-1.47s-1.39-2.35-1.39-4.11.47-3.24,1.41-4.25,2.16-1.51,3.66-1.51,2.64.49,3.55,1.48c.92.99,1.38,2.38,1.38,4.17,0,.11,0,.27-.01.49h-8.09c.07,1.19.41,2.1,1.01,2.74.61.63,1.36.95,2.27.95.67,0,1.25-.18,1.73-.53s.85-.92,1.13-1.7ZM21.61,137.27h6.06c-.08-.91-.31-1.6-.69-2.05-.59-.71-1.34-1.06-2.28-1.06-.84,0-1.55.28-2.13.85s-.89,1.32-.96,2.27Z"/>
        <path class="cls-1" d="M47.84,139.76l1.81.23c-.2,1.25-.7,2.22-1.52,2.93s-1.81,1.06-3,1.06c-1.48,0-2.68-.49-3.58-1.46-.9-.97-1.35-2.36-1.35-4.17,0-1.17.19-2.2.58-3.07s.98-1.54,1.77-1.98,1.66-.66,2.59-.66c1.18,0,2.14.3,2.89.89s1.23,1.44,1.44,2.54l-1.79.28c-.17-.73-.47-1.28-.9-1.64s-.96-.55-1.57-.55c-.93,0-1.68.33-2.26,1s-.87,1.71-.87,3.15.28,2.52.84,3.18,1.29.99,2.19.99c.72,0,1.32-.22,1.81-.66s.79-1.12.92-2.04Z"/>
        <path class="cls-1" d="M60.25,138.31c0-2.01.56-3.5,1.68-4.46.93-.8,2.07-1.21,3.41-1.21,1.49,0,2.71.49,3.66,1.47.95.98,1.42,2.33,1.42,4.05,0,1.4-.21,2.49-.63,3.29s-1.03,1.42-1.83,1.86-1.67.66-2.62.66c-1.52,0-2.75-.49-3.68-1.46s-1.4-2.38-1.4-4.21ZM62.14,138.31c0,1.39.3,2.43.91,3.12s1.37,1.04,2.29,1.04,1.67-.35,2.28-1.04.91-1.75.91-3.18c0-1.34-.3-2.36-.91-3.05s-1.37-1.04-2.27-1.04-1.68.34-2.29,1.03-.91,1.73-.91,3.12Z"/>
        <path class="cls-1" d="M89.05,140.24l1.9.23c-.3,1.11-.85,1.97-1.67,2.58-.81.61-1.85.92-3.11.92-1.59,0-2.84-.49-3.77-1.47s-1.39-2.35-1.39-4.11.47-3.24,1.41-4.25,2.16-1.51,3.66-1.51,2.64.49,3.55,1.48c.92.99,1.38,2.38,1.38,4.17,0,.11,0,.27-.01.49h-8.09c.07,1.19.41,2.1,1.01,2.74s1.36.95,2.27.95c.67,0,1.25-.18,1.73-.53s.85-.92,1.13-1.7ZM83.01,137.27h6.06c-.08-.91-.31-1.6-.69-2.05-.59-.71-1.34-1.06-2.28-1.06-.84,0-1.55.28-2.13.85s-.89,1.32-.96,2.27Z"/>
        <path class="cls-1" d="M101.6,140.5l1.82-.29c.1.73.39,1.29.85,1.68s1.12.58,1.96.58,1.47-.17,1.88-.52.61-.75.61-1.21c0-.42-.18-.74-.54-.98-.25-.16-.88-.37-1.88-.62-1.35-.34-2.28-.64-2.8-.88s-.92-.59-1.18-1.03-.4-.92-.4-1.46c0-.48.11-.93.33-1.34s.52-.75.9-1.03c.29-.21.68-.39,1.17-.54s1.02-.22,1.59-.22c.85,0,1.6.12,2.24.37.64.25,1.12.58,1.42,1s.52.98.63,1.68l-1.8.25c-.08-.56-.32-.99-.71-1.31s-.94-.47-1.66-.47c-.84,0-1.45.14-1.81.42s-.54.61-.54.98c0,.24.07.45.22.64.15.2.38.36.7.49.18.07.73.22,1.62.47,1.3.35,2.21.63,2.72.85s.92.54,1.21.97.44.95.44,1.57-.18,1.19-.54,1.73-.87.96-1.55,1.26-1.44.44-2.29.44c-1.41,0-2.48-.29-3.22-.88s-1.21-1.45-1.41-2.6Z"/>
        <path class="cls-1" d="M128.85,139.76l1.81.23c-.2,1.25-.7,2.22-1.52,2.93s-1.81,1.06-3,1.06c-1.48,0-2.68-.49-3.58-1.46s-1.35-2.36-1.35-4.17c0-1.17.19-2.2.58-3.07.39-.88.98-1.54,1.77-1.98s1.66-.66,2.59-.66c1.18,0,2.14.3,2.89.89s1.23,1.44,1.44,2.54l-1.79.28c-.17-.73-.47-1.28-.9-1.64s-.96-.55-1.57-.55c-.93,0-1.68.33-2.26,1s-.87,1.71-.87,3.15.28,2.52.84,3.18,1.29.99,2.19.99c.72,0,1.32-.22,1.81-.66s.79-1.12.92-2.04Z"/>
        <path class="cls-1" d="M3.97,153.31l.65.18c-.14.6-.38,1.05-.74,1.36-.36.31-.79.47-1.3.47s-.96-.12-1.3-.36c-.33-.24-.59-.59-.76-1.04s-.26-.95-.26-1.47c0-.57.1-1.07.29-1.49s.48-.75.84-.97c.36-.22.76-.33,1.2-.33.49,0,.91.14,1.24.42s.57.67.7,1.18l-.64.17c-.11-.4-.28-.69-.5-.87-.22-.18-.49-.27-.82-.27-.38,0-.7.1-.95.3-.25.2-.43.47-.54.81-.1.34-.15.69-.15,1.05,0,.47.06.87.18,1.22s.31.61.57.78.54.26.84.26c.37,0,.68-.12.93-.35.25-.23.43-.58.52-1.04Z"/>
        <path class="cls-1" d="M13.22,152.56c0-.91.22-1.62.66-2.14s1.01-.77,1.7-.77c.46,0,.87.12,1.23.36s.64.58.84,1.01c.19.43.29.92.29,1.47s-.1,1.05-.3,1.49-.49.77-.86,1-.77.34-1.2.34c-.46,0-.88-.12-1.24-.37s-.64-.59-.83-1.02c-.19-.43-.28-.89-.28-1.37ZM13.89,152.57c0,.66.16,1.18.48,1.56s.72.57,1.2.57.9-.19,1.21-.58c.32-.38.48-.93.48-1.63,0-.45-.07-.84-.2-1.17-.14-.33-.33-.59-.6-.77-.26-.18-.55-.27-.88-.27-.46,0-.86.18-1.19.53-.33.35-.5.94-.5,1.77Z"/>
        <path class="cls-1" d="M26.53,155.23v-5.48h.67l2.59,4.3v-4.3h.63v5.48h-.67l-2.59-4.31v4.31h-.63Z"/>
        <path class="cls-1" d="M39.02,153.47l.62-.06c.03.27.1.5.2.67s.27.32.5.43.48.16.76.16c.25,0,.47-.04.66-.12s.33-.19.43-.34c.09-.14.14-.3.14-.47s-.04-.32-.13-.45-.24-.24-.44-.32c-.13-.06-.42-.15-.88-.27-.45-.12-.77-.23-.95-.34-.24-.14-.41-.31-.53-.51-.12-.2-.17-.43-.17-.68,0-.28.07-.54.21-.78.14-.24.35-.42.62-.55s.57-.19.91-.19c.36,0,.69.07.97.2s.49.32.64.58.23.54.24.86l-.63.05c-.03-.35-.15-.61-.34-.78-.19-.18-.48-.27-.86-.27s-.68.08-.86.24c-.18.16-.27.35-.27.58,0,.2.06.36.19.49.13.13.45.26.98.39.53.13.89.25,1.09.35.29.15.5.33.64.56.14.23.21.49.21.78s-.08.57-.23.82-.37.46-.65.6-.6.21-.95.21c-.45,0-.82-.07-1.12-.22s-.54-.36-.71-.65c-.17-.29-.26-.62-.27-.98Z"/>
        <path class="cls-1" d="M54.76,149.75h.65v3.17c0,.55-.06.99-.17,1.31s-.31.59-.61.79-.68.3-1.15.3-.84-.09-1.13-.27c-.29-.18-.5-.43-.63-.77-.13-.34-.19-.79-.19-1.37v-3.17h.65v3.16c0,.48.04.83.12,1.05.08.23.22.4.41.52.19.12.43.18.71.18.48,0,.82-.12,1.03-.36.2-.24.31-.71.31-1.39v-3.16Z"/>
        <path class="cls-1" d="M64.01,155.23v-5.48h.65v4.83h2.43v.65h-3.08Z"/>
        <path class="cls-1" d="M77.32,155.23v-4.83h-1.62v-.65h3.91v.65h-1.63v4.83h-.65Z"/>
        <path class="cls-1" d="M88.2,152.56c0-.91.22-1.62.66-2.14s1.01-.77,1.7-.77c.46,0,.87.12,1.23.36s.64.58.84,1.01c.19.43.29.92.29,1.47s-.1,1.05-.3,1.49-.49.77-.86,1-.77.34-1.2.34c-.46,0-.88-.12-1.24-.37s-.64-.59-.83-1.02c-.19-.43-.28-.89-.28-1.37ZM88.87,152.57c0,.66.16,1.18.48,1.56s.72.57,1.2.57.9-.19,1.21-.58c.32-.38.48-.93.48-1.63,0-.45-.07-.84-.2-1.17-.14-.33-.33-.59-.6-.77-.26-.18-.55-.27-.88-.27-.46,0-.86.18-1.19.53-.33.35-.5.94-.5,1.77Z"/>
        <path class="cls-1" d="M101.51,155.23v-5.48h2.19c.44,0,.77.05,1,.15.23.1.41.27.55.52.14.25.2.52.2.83,0,.39-.11.72-.34.98-.23.27-.58.44-1.05.51.17.09.3.18.39.27.19.19.37.44.54.73l.86,1.49h-.82l-.65-1.14c-.19-.33-.35-.58-.47-.75s-.23-.3-.33-.37-.2-.12-.3-.15c-.07-.02-.19-.03-.36-.03h-.76v2.43h-.65ZM102.16,152.17h1.4c.3,0,.53-.03.7-.1s.3-.18.38-.33c.09-.15.13-.31.13-.49,0-.26-.08-.47-.25-.64-.17-.17-.44-.25-.8-.25h-1.56v1.81Z"/>
        <path class="cls-1" d="M114.46,155.23v-5.48h3.57v.65h-2.91v1.68h2.73v.64h-2.73v1.86h3.03v.65h-3.68Z"/>
        <path class="cls-1" d="M126.73,153.47l.62-.06c.03.27.1.5.2.67s.27.32.5.43.48.16.76.16c.25,0,.47-.04.66-.12s.33-.19.43-.34c.09-.14.14-.3.14-.47s-.04-.32-.13-.45-.24-.24-.44-.32c-.13-.06-.42-.15-.88-.27-.45-.12-.77-.23-.95-.34-.24-.14-.41-.31-.53-.51-.12-.2-.17-.43-.17-.68,0-.28.07-.54.21-.78.14-.24.35-.42.62-.55s.57-.19.91-.19c.36,0,.69.07.97.2s.49.32.64.58.23.54.24.86l-.63.05c-.03-.35-.15-.61-.34-.78-.19-.18-.48-.27-.86-.27s-.68.08-.86.24c-.18.16-.27.35-.27.58,0,.2.06.36.19.49.13.13.45.26.98.39.53.13.89.25,1.09.35.29.15.5.33.64.56.14.23.21.49.21.78s-.08.57-.23.82-.37.46-.65.6-.6.21-.95.21c-.45,0-.82-.07-1.12-.22s-.54-.36-.71-.65c-.17-.29-.26-.62-.27-.98Z"/>
      </g>
      <g>
        <g>
          <path class="cls-3" d="M56.19,36.81c4.63-1.54,9.88-.27,14.59,3.06l-11.26,4.78-3.33-7.84Z"/>
          <path class="cls-3" d="M65.76,59.34l-5.43-12.79,12.32-5.23c3.38,2.85,6.36,6.78,8.5,11.48l-15.4,6.54Z"/>
          <path class="cls-3" d="M58.4,47.38l5.43,12.79-15.4,6.54c-1.9-4.81-2.65-9.68-2.35-14.09l12.32-5.23Z"/>
          <path class="cls-3" d="M64.63,62.08l5.42,12.77-12.32,5.23c-3.38-2.85-6.36-6.77-8.5-11.47l15.4-6.54Z"/>
          <path class="cls-3" d="M72.81,75.95l11.25-4.77c-.88,5.7-3.62,10.34-7.92,12.6l-3.32-7.83Z"/>
          <path class="cls-3" d="M71.99,74.03l-5.42-12.77,15.4-6.54c1.9,4.81,2.64,9.67,2.35,14.08l-12.32,5.23Z"/>
          <path class="cls-3" d="M57.59,45.47l-11.26,4.78c.88-5.7,3.61-10.36,7.93-12.62l3.33,7.84Z"/>
          <path class="cls-3" d="M74.19,84.6c-4.61,1.53-9.86.27-14.57-3.05l11.25-4.77,3.32,7.83Z"/>
          <path class="cls-3" d="M93.55,47.55l-10.44,4.43c-2.11-4.64-5.03-8.57-8.33-11.55l7.91-3.36c4.76,2.26,8.6,5.83,10.85,10.48Z"/>
          <path class="cls-3" d="M80.03,35.94l-7.02,2.98c-2.75-2.12-5.72-3.61-8.69-4.33,5.54-.84,10.98-.33,15.71,1.35Z"/>
          <path class="cls-3" d="M47.02,41.93c-1.54,2.64-2.53,5.81-2.92,9.26l-7.02,2.98c2.08-4.58,5.49-8.84,9.94-12.24Z"/>
          <path class="cls-3" d="M36.03,56.88l7.91-3.36c-.15,4.45.65,9.27,2.52,14.02l-10.44,4.43c-1.79-4.85-1.68-10.09,0-15.09Z"/>
          <path class="cls-3" d="M36.84,73.88l10.44-4.43c2.11,4.64,5.02,8.56,8.33,11.54l-7.93,3.36c-4.75-2.27-8.59-5.82-10.84-10.47Z"/>
          <path class="cls-3" d="M50.37,85.48l7.03-2.98c2.75,2.12,5.71,3.6,8.67,4.33-5.54.84-10.98.33-15.71-1.34Z"/>
          <path class="cls-3" d="M83.37,79.48c1.54-2.64,2.53-5.8,2.91-9.25l7.03-2.98c-2.08,4.57-5.49,8.83-9.95,12.23Z"/>
          <path class="cls-3" d="M94.37,64.53l-7.93,3.36c.15-4.45-.65-9.26-2.52-14.01l10.44-4.43c1.78,4.85,1.68,10.08,0,15.07Z"/>
          <path class="cls-3" d="M81.16,52.81l-15.4,6.54-5.43-12.79,12.32-5.23c3.38,2.85,6.36,6.78,8.5,11.48Z"/>
          <path class="cls-3" d="M70.78,39.87l-11.26,4.78-3.33-7.84c4.63-1.54,9.88-.27,14.59,3.06Z"/>
          <path class="cls-3" d="M54.26,37.63l3.33,7.84-11.26,4.78c.88-5.7,3.61-10.36,7.93-12.62Z"/>
          <path class="cls-3" d="M46.07,52.61l12.32-5.23,5.43,12.79-15.4,6.54c-1.9-4.81-2.65-9.68-2.35-14.09Z"/>
          <path class="cls-3" d="M49.24,68.61l15.4-6.54,5.42,12.77-12.32,5.23c-3.38-2.85-6.36-6.77-8.5-11.47Z"/>
          <path class="cls-3" d="M59.63,81.55l11.25-4.77,3.32,7.83c-4.61,1.53-9.86.27-14.57-3.05Z"/>
          <path class="cls-3" d="M76.13,83.78l-3.32-7.83,11.25-4.77c-.88,5.7-3.62,10.34-7.92,12.6Z"/>
          <path class="cls-3" d="M84.32,68.8l-12.32,5.23-5.42-12.77,15.4-6.54c1.9,4.81,2.64,9.67,2.35,14.08Z"/>
          <path class="cls-3" d="M43.94,53.52c-.15,4.45.65,9.27,2.52,14.02l-10.44,4.43c-1.79-4.85-1.68-10.09,0-15.09l7.91-3.36Z"/>
          <path class="cls-3" d="M93.31,67.25c-2.08,4.57-5.49,8.83-9.95,12.23,1.54-2.64,2.53-5.8,2.91-9.25l7.03-2.98Z"/>
          <path class="cls-3" d="M84.05,71.18c-.88,5.7-3.62,10.34-7.92,12.6l-3.32-7.83,11.25-4.77Z"/>
          <path class="cls-3" d="M70.87,76.77l3.32,7.83c-4.61,1.53-9.86.27-14.57-3.05l11.25-4.77Z"/>
          <path class="cls-3" d="M66.07,86.82c-5.54.84-10.98.33-15.71-1.34l7.03-2.98c2.75,2.12,5.71,3.6,8.67,4.33Z"/>
          <path class="cls-3" d="M55.6,80.99l-7.93,3.36c-4.75-2.27-8.59-5.82-10.84-10.47l10.44-4.43c2.11,4.64,5.02,8.56,8.33,11.54Z"/>
          <path class="cls-3" d="M64.63,62.08l5.42,12.77-12.32,5.23c-3.38-2.85-6.36-6.77-8.5-11.47l15.4-6.54Z"/>
          <path class="cls-3" d="M81.97,54.72c1.9,4.81,2.64,9.67,2.35,14.08l-12.32,5.23-5.42-12.77,15.4-6.54Z"/>
          <path class="cls-3" d="M94.37,49.46c1.78,4.85,1.68,10.08,0,15.07l-7.93,3.36c.15-4.45-.65-9.26-2.52-14.01l10.44-4.43Z"/>
          <path class="cls-3" d="M93.55,47.55l-10.44,4.43c-2.11-4.64-5.03-8.57-8.33-11.55l7.91-3.36c4.76,2.26,8.6,5.83,10.85,10.48Z"/>
          <path class="cls-3" d="M80.03,35.94l-7.02,2.98c-2.75-2.12-5.72-3.61-8.69-4.33,5.54-.84,10.98-.33,15.71,1.35Z"/>
          <path class="cls-3" d="M81.16,52.81l-15.4,6.54-5.43-12.79,12.32-5.23c3.38,2.85,6.36,6.78,8.5,11.48Z"/>
          <path class="cls-3" d="M70.78,39.87l-11.26,4.78-3.33-7.84c4.63-1.54,9.88-.27,14.59,3.06Z"/>
          <path class="cls-3" d="M47.02,41.93c-1.54,2.64-2.53,5.81-2.92,9.26l-7.02,2.98c2.08-4.58,5.49-8.84,9.94-12.24Z"/>
          <path class="cls-3" d="M54.26,37.63l3.33,7.84-11.26,4.78c.88-5.7,3.61-10.36,7.93-12.62Z"/>
          <path class="cls-3" d="M58.4,47.38l5.43,12.79-15.4,6.54c-1.9-4.81-2.65-9.68-2.35-14.09l12.32-5.23Z"/>
        </g>
        <path class="cls-2" d="M46.78,15.78c-.3.11-.57.22-.85.36-4.25,2.07-6.14,7.1-4.29,11.46s7.14,6.61,11.65,4.69c22.83-9.69,49.28,1,58.97,23.84,9.54,22.48-.33,48.13-22.49,58.38l-14.09,6.8,14.41-6.11c12.9-5.89,22.84-16.42,27.99-29.64,5.16-13.26,4.95-27.77-.6-40.86C105.88,17.37,74.15,4.41,46.78,15.78ZM105.52,103.63c11.09-12.77,14.51-31.13,7.44-47.8-9.85-23.22-36.75-34.09-59.96-24.24-4.13,1.75-8.92-.17-10.67-4.29s.03-8.6,3.93-10.49c.13-.06.24-.11.36-.17h.02c.12-.06.25-.11.41-.17,27.01-11.22,58.3,1.57,69.73,28.5,8.81,20.75,3.73,43.71-11.27,58.66Z"/>
        <path class="cls-2" d="M116.78,44.98c8.81,20.75,3.73,43.71-11.27,58.66,11.09-12.77,14.51-31.13,7.44-47.8-9.85-23.22-36.75-34.09-59.96-24.24-4.13,1.75-8.92-.17-10.67-4.29s.03-8.6,3.93-10.49c.13-.06.24-.11.36-.17h.02c.12-.06.25-.11.41-.17,27.01-11.22,58.3,1.57,69.73,28.5Z"/>
        <path class="cls-4" d="M77.37,89.02c-22.83,9.69-49.28-1-58.97-23.84-9.55-22.49.33-48.13,22.49-58.38L54.98,0l-14.41,6.11c-12.9,5.89-22.84,16.41-27.99,29.64-5.16,13.25-4.95,27.76.61,40.86,11.59,27.31,43.31,40.27,70.68,28.9.14-.05.28-.1.43-.16s.28-.13.42-.2c4.25-2.07,6.15-7.1,4.3-11.45-1.91-4.5-7.14-6.61-11.65-4.69ZM84.39,104.49c-.13.07-.24.11-.38.17-.13.05-.25.11-.41.16-27.01,11.22-58.29-1.57-69.72-28.5-8.81-20.76-3.74-43.7,11.26-58.65-11.09,12.77-14.51,31.13-7.44,47.8,9.85,23.22,36.75,34.09,59.96,24.24,4.13-1.75,8.92.17,10.67,4.29,1.69,3.99-.04,8.59-3.93,10.49Z"/>
        <path class="cls-4" d="M88.33,94c1.69,3.99-.04,8.59-3.93,10.49-.13.07-.24.11-.38.17-.13.05-.25.11-.41.16-27.01,11.22-58.29-1.57-69.72-28.5-8.81-20.76-3.74-43.7,11.26-58.65-11.09,12.77-14.51,31.13-7.44,47.8,9.85,23.22,36.75,34.09,59.96,24.24,4.13-1.75,8.92.17,10.67,4.29Z"/>
      </g>
    </g>
  </g>
</svg>